<?xml version="1.0" encoding="iso-8859-1"?>
<!-- Generator: Adobe Illustrator 19.0.0, SVG Export Plug-In . SVG Version: 6.00 Build 0)  -->
<svg version="1.1" id="Layer_1" xmlns="http://www.w3.org/2000/svg" xmlns:xlink="http://www.w3.org/1999/xlink" x="0px" y="0px"
	 viewBox="0 0 512 512" style="enable-background:new 0 0 512 512;" xml:space="preserve">
<g>
	<g>
		<path d="M512,109.714C512,49.218,462.782,0,402.286,0c-36.879,0-70.669,18.238-90.939,48.327
			c-17.913-4.302-36.458-6.531-55.347-6.531s-37.435,2.229-55.347,6.531C180.383,18.238,146.593,0,109.714,0
			C49.218,0,0,49.218,0,109.714c0,31.455,13.549,61.238,36.769,81.936c-10.419,26.818-15.871,55.614-15.871,85.248
			c0,62.798,24.455,121.837,68.86,166.242S193.202,512,256,512c62.798,0,121.837-24.455,166.242-68.86
			c44.405-44.405,68.86-103.444,68.86-166.242c0-29.634-5.452-58.43-15.871-85.248C498.451,170.953,512,141.169,512,109.714z
			 M31.347,109.714c0-43.212,35.156-78.367,78.367-78.367c23.126,0,44.554,10.04,59.244,27.037
			c-29.313,11.669-56.22,29.292-79.2,52.272C74.383,126.03,61.406,143.161,51,161.593C38.484,147.411,31.347,129.001,31.347,109.714
			z M256,480.653c-112.351,0-203.755-91.405-203.755-203.755S143.649,73.143,256,73.143s203.755,91.404,203.755,203.755
			S368.351,480.653,256,480.653z M422.242,110.656c-22.98-22.982-49.888-40.603-79.2-52.272
			c14.689-16.996,36.118-27.037,59.244-27.037c43.212,0,78.367,35.156,78.367,78.367c0,19.287-7.137,37.697-19.654,51.879
			C450.596,143.161,437.617,126.03,422.242,110.656z"/>
	</g>
</g>
<g>
	<g>
		<path d="M404.064,220.152l-26.48-25.226c-11.713-11.151-27.062-17.293-43.217-17.293c-34.569,0-62.694,28.124-62.694,62.694
			v36.571c0,43.212,35.156,78.367,78.367,78.367c43.212,0,78.367-35.156,78.367-78.367
			C428.408,255.253,419.762,235.099,404.064,220.152z M350.041,323.918c-25.927,0-47.02-21.093-47.02-47.02v-36.571
			c0-17.285,14.062-31.347,31.347-31.347c8.072,0,15.743,3.071,21.598,8.645l26.479,25.226c9.426,8.975,14.617,21.066,14.617,34.047
			C397.061,302.825,375.968,323.918,350.041,323.918z"/>
	</g>
</g>
<g>
	<g>
		<path d="M177.633,177.633c-16.155,0-31.504,6.142-43.22,17.297l-26.474,25.22c-15.701,14.947-24.347,35.101-24.347,56.748
			c0,43.212,35.156,78.367,78.367,78.367c43.212,0,78.367-35.156,78.367-78.367v-36.571
			C240.327,205.757,212.202,177.633,177.633,177.633z M208.98,276.898c0,25.927-21.093,47.02-47.02,47.02
			c-25.927,0-47.02-21.093-47.02-47.02c0-12.982,5.191-25.073,14.619-34.05l26.474-25.22c5.858-5.578,13.529-8.649,21.601-8.649
			c17.285,0,31.347,14.062,31.347,31.347V276.898z"/>
	</g>
</g>
<g>
	<g>
		<polygon points="208.98,376.163 208.98,407.51 240.327,407.51 240.327,449.306 271.673,449.306 271.673,407.51 303.02,407.51 
			303.02,376.163 		"/>
	</g>
</g>
<g>
</g>
<g>
</g>
<g>
</g>
<g>
</g>
<g>
</g>
<g>
</g>
<g>
</g>
<g>
</g>
<g>
</g>
<g>
</g>
<g>
</g>
<g>
</g>
<g>
</g>
<g>
</g>
<g>
</g>
</svg>
